<svg xmlns="http://www.w3.org/2000/svg" xmlns:xlink="http://www.w3.org/1999/xlink" version="1.1" id="Capa_1" x="0px" y="0px" width="436.98px" height="436.98px" viewBox="0 0 436.98 436.98" style="enable-background:new 0 0 436.98 436.98;" xml:space="preserve">
<g>
	<path d="M372.986,60.625c-27.503-27.503-61.849-47.19-99.324-56.933c-2.995-0.777-6.184-0.126-8.633,1.768   s-3.883,4.815-3.883,7.911v101.405c0,5.523,4.477,10,10,10h50.036c4.475,0,8.646,2.408,10.884,6.285   c2.237,3.875,2.237,8.689-0.001,12.566l-102.692,177.84c-2.238,3.875-6.408,6.282-10.883,6.282c-4.475,0-8.645-2.407-10.883-6.282   L104.915,143.626c-2.238-3.875-2.238-8.688,0-12.565c2.238-3.876,6.408-6.285,10.883-6.285h50.036c5.523,0,10-4.477,10-10V13.371   c0-3.096-1.434-6.017-3.883-7.911c-2.449-1.894-5.637-2.548-8.633-1.768c-37.475,9.743-71.82,29.43-99.324,56.933   C22.727,101.893,0,156.76,0,215.121c0,58.361,22.727,113.229,63.994,154.496c41.268,41.267,96.136,63.993,154.496,63.993   c58.36,0,113.228-22.728,154.496-63.994c41.267-41.268,63.994-96.135,63.994-154.496   C436.98,156.759,414.253,101.893,372.986,60.625z"/>
</g>
<g>
</g>
<g>
</g>
<g>
</g>
<g>
</g>
<g>
</g>
<g>
</g>
<g>
</g>
<g>
</g>
<g>
</g>
<g>
</g>
<g>
</g>
<g>
</g>
<g>
</g>
<g>
</g>
<g>
</g>
</svg>